<svg width="800" height="708" viewBox="0 0 800 708" fill="none" xmlns="http://www.w3.org/2000/svg">
<path d="M741.648 70.4109C701.827 25.4375 646.786 0.671875 586.667 0.671875C539.441 0.671875 495.261 19.8891 458.906 56.2437C434.653 80.4984 414.641 111.337 400.002 146.761C385.359 111.337 365.35 80.5 341.097 56.2437C304.742 19.8891 260.562 0.671875 213.336 0.671875C153.216 0.671875 98.1766 25.4391 58.3547 70.4125C21.2687 112.289 0 169.486 0 227.338C0 296.803 21.0187 365.361 62.4703 431.116C95.2969 483.184 140.95 533.592 198.166 580.942C295.112 661.173 390.531 704.372 394.545 706.17C397.988 707.714 402.013 707.714 405.453 706.17C409.469 704.372 504.886 661.173 601.833 580.942C659.048 533.592 704.702 483.184 737.528 431.116C778.981 365.361 800 296.803 800 227.338C800 169.486 778.731 112.289 741.648 70.4109Z" fill="#FF6647"/>
<path d="M251.498 580.942C194.283 533.592 148.63 483.184 115.803 431.116C74.3516 365.361 53.3328 296.802 53.3328 227.338C53.3328 169.486 74.6016 112.289 111.684 70.4109C145.184 32.5781 189.458 9.05002 238.462 2.53127C230.203 1.30315 221.817 0.673462 213.334 0.673462C153.214 0.673462 98.175 25.4406 58.3531 70.4141C21.2688 112.289 0 169.486 0 227.338C0 296.803 21.0187 365.361 62.4703 431.116C95.2969 483.184 140.95 533.592 198.166 580.942C295.112 661.173 390.531 704.372 394.545 706.17C397.988 707.714 402.012 707.714 405.453 706.17C406.53 705.689 414.181 702.227 426.667 695.877C392.584 678.545 322.455 639.664 251.498 580.942Z" fill="#E35336"/>
<path d="M348.287 327.059L340.601 253.454L322.715 255.558L321.717 242.39L387.084 239.457L386.849 248.038L368.963 250.142L362.342 325.533L348.287 327.059ZM408.428 325.369L400.941 241.135L457.349 238.358L457.115 246.94L430.167 250.61L427.302 277.16L454.557 276.429L455.398 287.936L426.436 286.265L423.479 314.865L458.73 310.153L458.448 323.344L408.428 325.369Z" fill="white"/>
<path d="M149.922 439.947L137.091 438.25L159.538 352.726L190.542 354.105L208.632 437.002L197.147 439.122L187.946 418.032L153.952 421.442L149.922 439.947ZM185.012 411.298L166.474 368.735L165.45 368.753L156.084 411.547L185.012 411.298ZM268.646 437.874L239.773 375.265L239.005 375.278L238.025 436.489L225.239 437.352L229.79 353.42L260.739 351.599L274.729 412.292L288.628 350.472L319.633 351.851L324.924 434.972L313.439 437.092L293.95 369.326L292.926 369.344L280.131 435.754L268.646 437.874ZM351.892 436.421L339.06 434.725L361.507 349.2L392.512 350.579L410.601 433.476L399.116 435.597L389.915 414.506L355.921 417.916L351.892 436.421ZM386.981 407.773L368.443 365.21L367.419 365.227L358.053 408.021L386.981 407.773ZM470.615 434.349L441.742 371.739L440.975 371.753L439.995 432.963L427.208 433.826L431.76 349.894L462.709 348.074L476.698 408.767L490.597 346.947L521.602 348.326L526.893 431.446L515.409 433.567L495.919 365.801L494.895 365.819L482.1 432.228L470.615 434.349ZM575.638 433.668C568.897 433.786 563.167 433.075 558.446 431.536C553.726 430.082 549.895 428.186 546.953 425.847C546.119 422.107 545.501 418.49 545.099 414.998C544.695 411.421 544.464 407.968 544.406 404.641C544.274 397.047 544.918 389.952 546.339 383.356C547.76 376.759 549.704 370.794 552.172 365.459C554.723 360.038 557.543 355.38 560.633 351.485C563.723 347.591 566.828 344.549 569.947 342.361C576.392 344.895 582.269 349.059 587.576 354.856C592.969 360.65 597.274 367.702 600.491 376.009C603.792 384.23 605.532 393.417 605.709 403.571C605.822 410.055 605.107 415.53 603.563 419.995C602.018 424.374 599.047 427.712 594.649 430.008C590.336 432.302 583.999 433.522 575.638 433.668ZM567.998 421.383C571.581 421.321 575.16 421.002 578.735 420.428C582.309 419.853 585.454 419.073 588.168 418.087C589.038 414.146 589.575 410.68 589.778 407.689C590.067 404.697 590.182 401.495 590.123 398.082C590.005 391.341 589.343 385.165 588.135 379.554C586.928 373.942 585.218 368.894 583.006 364.409C577.549 369.625 572.913 375.381 569.097 381.678C565.28 387.89 562.363 394.342 560.346 401.034C558.414 407.725 557.504 414.269 557.616 420.669C559.158 420.983 560.783 421.211 562.493 421.352C564.286 421.406 566.121 421.416 567.998 421.383ZM633.003 435.355L626.714 427.144C631.023 424.593 633.926 422.238 635.425 420.078C636.923 417.919 637.652 415.687 637.612 413.383C637.569 410.909 636.888 408.574 635.569 406.378C634.249 404.097 632.631 401.82 630.714 399.55C628.796 397.279 626.834 394.881 624.827 392.355C622.904 389.743 621.276 386.912 619.942 383.863C618.607 380.729 617.907 377.284 617.841 373.53C617.718 366.449 619.402 360.232 622.893 354.879C626.468 349.44 630.989 344.454 636.458 339.92L660.151 355.125C655.594 358.106 651.853 361.372 648.928 364.922C646.003 368.473 644.577 372.338 644.65 376.519C644.699 379.334 645.385 381.968 646.708 384.42C648.116 386.871 649.652 389.276 651.315 391.637C653.061 393.911 654.595 396.231 655.917 398.598C657.324 400.963 658.051 403.51 658.098 406.241C658.216 412.981 655.97 418.738 651.359 423.513C646.832 428.201 640.713 432.148 633.003 435.355Z" fill="white"/>
<path d="M249.909 563.119L221.036 500.51L220.268 500.523L219.288 561.734L206.501 562.597L211.053 478.665L242.002 476.844L255.991 537.537L269.89 475.717L300.895 477.097L306.187 560.217L294.702 562.338L275.212 494.571L274.188 494.589L261.393 560.999L249.909 563.119ZM360.306 562.345C355.699 562.425 351.374 561.562 347.331 559.755C343.373 557.946 340.034 554.889 337.313 550.584C334.592 546.279 332.742 540.508 331.762 533.27L324.63 476.682L355.055 474.231C354.247 486.62 353.571 496.746 353.025 504.607C352.48 512.468 352.076 518.663 351.813 523.191C351.55 527.633 351.35 530.88 351.215 532.931C351.079 534.896 350.973 536.178 350.898 536.777C350.909 537.374 350.915 537.758 350.918 537.929C351.011 543.219 352.313 546.951 354.826 549.126C357.425 551.3 360.857 552.349 365.123 552.275C367.512 552.233 369.85 551.723 372.137 550.744C374.51 549.764 376.442 547.981 377.933 545.394C379.509 542.807 380.299 539.165 380.303 534.471L380.418 475.068L393.205 474.205L390.415 534.423C390.174 540.145 389.104 544.858 387.206 548.561C385.306 552.179 382.88 554.995 379.928 557.009C376.974 558.939 373.797 560.274 370.396 561.016C366.997 561.844 363.633 562.287 360.306 562.345ZM425.463 559.927L416.685 475.075L447.11 472.624L439.518 558.402L425.463 559.927ZM487.746 558.84L480.06 485.235L462.174 487.339L461.176 474.171L526.543 471.238L526.309 479.819L508.423 481.923L501.802 557.314L487.746 558.84ZM568.398 558.712C561.658 558.83 555.927 558.119 551.206 556.58C546.487 555.126 542.656 553.23 539.713 550.892C538.88 547.151 538.262 543.535 537.86 540.042C537.456 536.465 537.225 533.012 537.167 529.685C537.034 522.091 537.679 514.997 539.1 508.4C540.521 501.804 542.465 495.838 544.932 490.504C547.483 485.082 550.304 480.424 553.394 476.53C556.484 472.635 559.588 469.594 562.708 467.406C569.153 469.939 575.029 474.104 580.337 479.9C585.729 485.695 590.034 492.746 593.252 501.054C596.553 509.275 598.292 518.462 598.47 528.615C598.583 535.099 597.868 540.574 596.324 545.039C594.779 549.419 591.807 552.756 587.409 555.052C583.097 557.346 576.76 558.566 568.398 558.712ZM560.759 546.428C564.342 546.365 567.921 546.047 571.496 545.472C575.07 544.898 578.214 544.117 580.928 543.131C581.798 539.19 582.335 535.724 582.539 532.734C582.828 529.741 582.943 526.539 582.883 523.126C582.766 516.386 582.103 510.21 580.896 504.598C579.688 498.986 577.979 493.938 575.767 489.453C570.31 494.669 565.674 500.426 561.858 506.723C558.04 512.934 555.123 519.386 553.106 526.078C551.175 532.769 550.265 539.314 550.377 545.713C551.918 546.027 553.544 546.255 555.253 546.396C557.047 546.45 558.882 546.461 560.759 546.428Z" fill="white"/>
<path d="M80.1662 237.825C78.5325 239.155 76.987 240.086 75.5297 240.62C74.0893 241.173 72.7818 241.447 71.6073 241.44C70.6804 240.682 69.8304 239.912 69.0574 239.132C68.2676 238.331 67.5444 237.527 66.8878 236.72C65.3893 234.88 64.1781 233.012 63.2539 231.116C62.3298 229.221 61.656 227.38 61.2325 225.592C60.8129 223.768 60.6069 222.079 60.6144 220.525C60.622 218.972 60.7978 217.625 61.1421 216.485C63.215 215.863 65.463 215.752 67.8862 216.152C70.33 216.535 72.7492 217.437 75.1436 218.858C77.5418 220.241 79.7427 222.163 81.7462 224.624C83.0258 226.195 83.9068 227.679 84.3894 229.074C84.8551 230.448 84.7692 231.842 84.1316 233.255C83.5146 234.652 82.1928 236.175 80.1662 237.825ZM75.9174 236.281C76.786 235.574 77.604 234.804 78.3715 233.973C79.1391 233.142 79.7611 232.343 80.2377 231.577C79.6907 230.441 79.1536 229.485 78.6264 228.711C78.1198 227.92 77.5298 227.111 76.8564 226.283C75.5263 224.65 74.1713 223.26 72.7913 222.114C71.4113 220.968 70.0166 220.057 68.6073 219.382C68.2733 221.717 68.2451 224.027 68.5229 226.311C68.7838 228.574 69.3124 230.723 70.1086 232.757C70.9255 234.774 71.9653 236.558 73.228 238.109C73.6676 237.889 74.111 237.631 74.5583 237.336C75.0094 237.003 75.4625 236.651 75.9174 236.281ZM99.3828 222.283C98.659 222.872 97.7756 223.54 96.7324 224.286C95.6893 225.032 94.6726 225.705 93.6823 226.305L75.6505 207.768C76.1232 207.039 76.7614 206.176 77.565 205.178C78.3892 204.163 79.3008 203.128 80.2997 202.074C81.2817 201 82.2794 200.05 83.2927 199.225C84.3887 198.333 85.567 197.563 86.8275 196.915C88.1088 196.25 89.4025 195.833 90.7088 195.663C91.3495 196.07 91.9217 196.498 92.4253 196.948C92.9121 197.377 93.3407 197.819 93.7111 198.274C94.6539 199.432 95.2288 200.666 95.4357 201.976C95.6465 203.249 95.589 204.551 95.263 205.882C97.2576 205.84 99.0468 206.137 100.631 206.773C102.235 207.393 103.425 208.178 104.199 209.129C105.007 210.122 105.446 211.295 105.516 212.647C105.59 213.963 105.155 215.435 104.211 217.063C103.267 218.691 101.658 220.431 99.3828 222.283ZM89.3341 212.411C90.3103 210.654 90.7872 208.959 90.7649 207.326C90.7426 205.694 90.3442 204.402 89.5698 203.451C89.0647 202.83 88.3812 202.286 87.5192 201.819C86.678 201.335 85.837 201.125 84.9962 201.191C84.7274 201.41 84.4509 201.704 84.1667 202.073C83.8863 202.404 83.6021 202.773 83.314 203.179L89.3341 212.411ZM98.5204 219.323C98.6858 219.188 98.9236 218.995 99.2338 218.742C99.5272 218.469 99.8205 218.196 100.114 217.923C100.39 217.629 100.574 217.411 100.664 217.268C100.508 216.57 100.224 215.735 99.812 214.764C99.4036 213.756 98.8289 212.796 98.0881 211.886C97.5662 211.245 96.97 210.682 96.2995 210.196C95.6496 209.694 94.9029 209.304 94.0592 209.028C93.6255 209.932 93.1064 210.836 92.5019 211.741C91.9013 212.608 91.2631 213.471 90.5875 214.331L95.1326 221.307C95.7675 221.031 96.3667 220.733 96.9304 220.411C97.5147 220.073 98.0447 219.71 98.5204 219.323ZM129.314 198.534L113.534 196.32C113.423 196.479 113.293 196.636 113.144 196.792C113.016 196.93 112.897 197.079 112.786 197.238L118.312 205.737L115.463 208.573L97.431 190.036C97.9037 189.307 98.5729 188.418 99.4385 187.37C100.308 186.284 101.294 185.171 102.396 184.033C103.498 182.895 104.649 181.838 105.849 180.862C107.007 179.919 108.226 179.115 109.508 178.45C110.81 177.768 112.114 177.343 113.42 177.173C114.701 177.987 115.721 178.859 116.478 179.79C117.606 181.175 118.195 182.742 118.243 184.491C118.291 186.24 117.955 188.044 117.233 189.904L130.501 195.556L129.314 198.534ZM111.387 195.076C112.316 193.219 112.728 191.423 112.621 189.687C112.515 187.951 112.032 186.556 111.173 185.501C110.635 184.84 109.956 184.344 109.137 184.013C108.338 183.666 107.448 183.565 106.467 183.711C106.198 183.93 105.944 184.188 105.705 184.486C105.47 184.746 105.249 185.046 105.044 185.385L111.387 195.076ZM137.243 190.841L118.706 171.683L125.71 165.207L140.403 187.753L137.243 190.841ZM158.739 175.197L157.63 174.088C157.122 174.605 156.589 175.091 156.031 175.545C154.397 176.875 152.757 177.901 151.109 178.623C149.445 179.325 148.026 179.672 146.852 179.666C145.153 178.298 143.58 176.724 142.132 174.946C140.6 173.064 139.293 171.016 138.212 168.801C137.115 166.565 136.374 164.262 135.992 161.892C135.613 159.484 135.745 157.09 136.386 154.71L145.454 153.621C144.545 156.39 144.078 159.195 144.052 162.035C144.03 164.838 144.411 167.502 145.195 170.028C145.999 172.537 147.176 174.742 148.725 176.645C150.047 175.946 151.257 175.151 152.353 174.259C153.469 173.349 154.388 172.429 155.109 171.499L148.958 165.21L154.549 160.04L161.577 172.474L158.739 175.197ZM167.725 166.076L164.244 168.136L153.251 142.786L161.136 137.14L181.584 154.019L179.171 156.758L172.839 153.351L165.143 160.751L167.725 166.076ZM170.818 152.262L158.046 145.381L157.798 145.583L163.757 157.908L170.818 152.262ZM188.287 149.285L170.255 130.748C171.11 129.433 172.205 127.99 173.541 126.421C174.881 124.815 176.368 123.346 178.002 122.016C179.139 121.09 180.321 120.283 181.548 119.593C182.795 118.887 184.07 118.383 185.371 118.08C187.417 119.2 189.181 120.669 190.662 122.489C192.144 124.309 193.249 126.384 193.977 128.714C194.708 131.007 195.014 133.389 194.894 135.859C194.773 138.33 194.167 140.732 193.075 143.065C192.004 145.382 190.407 147.455 188.287 149.285ZM189.546 143.926C190.432 142.311 190.842 140.619 190.777 138.849C190.712 137.08 190.321 135.353 189.602 133.668C188.884 131.983 187.969 130.459 186.858 129.094C185.663 127.625 184.368 126.479 182.974 125.653C181.563 124.808 180.232 124.482 178.98 124.676C178.773 124.844 178.563 125.05 178.348 125.293C178.154 125.52 177.969 125.757 177.792 126.004L189.546 143.926ZM213.333 129.409C211.699 130.739 210.154 131.671 208.697 132.204C207.256 132.758 205.949 133.031 204.774 133.025C203.847 132.266 202.997 131.497 202.224 130.716C201.434 129.915 200.711 129.111 200.055 128.305C198.556 126.464 197.345 124.596 196.421 122.701C195.497 120.806 194.823 118.964 194.399 117.177C193.98 115.352 193.774 113.663 193.781 112.11C193.789 110.556 193.965 109.209 194.309 108.069C196.382 107.448 198.63 107.337 201.053 107.737C203.497 108.12 205.916 109.022 208.31 110.442C210.709 111.825 212.91 113.747 214.913 116.208C216.193 117.78 217.074 119.263 217.556 120.658C218.022 122.033 217.936 123.427 217.298 124.84C216.682 126.236 215.36 127.759 213.333 129.409ZM209.084 127.865C209.953 127.158 210.771 126.389 211.538 125.558C212.306 124.727 212.928 123.928 213.405 123.162C212.858 122.025 212.321 121.07 211.793 120.295C211.287 119.504 210.697 118.695 210.023 117.868C208.693 116.234 207.338 114.844 205.958 113.698C204.578 112.552 203.183 111.642 201.774 110.967C201.44 113.302 201.412 115.611 201.69 117.896C201.951 120.159 202.479 122.308 203.276 124.342C204.092 126.359 205.132 128.143 206.395 129.694C206.835 129.473 207.278 129.216 207.725 128.92C208.176 128.587 208.629 128.236 209.084 127.865ZM236.149 110.318L218.117 91.7811C218.59 91.0524 219.228 90.189 220.032 89.1909C220.839 88.1553 221.773 87.0853 222.834 85.9809C223.895 84.8765 225.025 83.836 226.225 82.8595C227.383 81.9167 228.602 81.1129 229.884 80.448C231.186 79.7663 232.49 79.3408 233.796 79.1714C235.077 79.985 236.131 80.8985 236.956 81.9118C238.319 83.5869 239.029 85.4508 239.084 87.5036C239.143 89.5188 238.721 91.5986 237.819 93.7428C236.9 95.8664 235.656 97.9282 234.086 99.9282L238.999 107.483L236.149 110.318ZM232.586 97.6421C233.369 95.7321 233.653 93.8847 233.438 92.0998C233.206 90.2943 232.627 88.8228 231.701 87.6854C231.112 86.9616 230.399 86.4242 229.563 86.0732C228.731 85.6847 227.824 85.5633 226.843 85.7092C226.636 85.8775 226.425 86.0834 226.211 86.3268C226.017 86.5534 225.831 86.7903 225.655 87.0375L232.586 97.6421ZM260.408 91.0842C258.774 92.4143 257.229 93.3458 255.772 93.8789C254.331 94.4327 253.024 94.7062 251.849 94.6996C250.922 93.9412 250.072 93.1718 249.299 92.3912C248.509 91.59 247.786 90.7862 247.13 89.9797C245.631 88.1391 244.42 86.2712 243.496 84.3758C242.572 82.4804 241.898 80.6391 241.474 78.8518C241.055 77.0271 240.849 75.338 240.856 73.7844C240.864 72.2309 241.04 70.8842 241.384 69.7442C243.457 69.1226 245.705 69.0117 248.128 69.4116C250.572 69.7947 252.991 70.6965 255.385 72.117C257.784 73.5 259.985 75.422 261.988 77.8829C263.268 79.4546 264.149 80.938 264.631 82.3333C265.097 83.7078 265.011 85.1017 264.373 86.5148C263.756 87.9111 262.435 89.4343 260.408 91.0842ZM256.159 89.54C257.028 88.8329 257.846 88.0638 258.613 87.2326C259.381 86.4014 260.003 85.6027 260.48 84.8364C259.933 83.7 259.395 82.7446 258.868 81.9703C258.362 81.1791 257.772 80.37 257.098 79.5428C255.768 77.9091 254.413 76.5192 253.033 75.3732C251.653 74.2272 250.258 73.3166 248.849 72.6415C248.515 74.9766 248.487 77.2863 248.765 79.5704C249.026 81.8338 249.554 83.9824 250.35 86.0164C251.167 88.0335 252.207 89.8175 253.47 91.3685C253.909 91.1482 254.353 90.8903 254.8 90.595C255.251 90.2621 255.704 89.9104 256.159 89.54ZM287.776 69.5255L271.995 67.3116C271.884 67.4708 271.754 67.6281 271.606 67.7834C271.478 67.922 271.358 68.0708 271.247 68.2301L276.774 76.7289L273.924 79.5645L255.892 61.0273C256.365 60.2986 257.034 59.4099 257.9 58.3613C258.769 57.2752 259.755 56.1631 260.857 55.025C261.96 53.8869 263.111 52.8296 264.31 51.8531C265.468 50.9103 266.688 50.1064 267.969 49.4416C269.271 48.7599 270.575 48.3344 271.881 48.1649C273.163 48.9786 274.182 49.8507 274.94 50.7813C276.068 52.1669 276.656 53.734 276.704 55.4828C276.753 57.2316 276.416 59.0358 275.695 60.8953L288.962 66.5479L287.776 69.5255ZM269.848 66.068C270.777 64.2109 271.189 62.4144 271.083 60.6786C270.976 58.9428 270.493 57.5476 269.635 56.4929C269.096 55.8312 268.417 55.3351 267.598 55.0048C266.8 54.6576 265.91 54.5569 264.928 54.7028C264.659 54.9216 264.405 55.1799 264.166 55.4777C263.931 55.7379 263.711 56.0376 263.505 56.3767L269.848 66.068ZM109.785 283.138L106.654 282.334C107.221 280.876 107.479 279.737 107.431 278.917C107.382 278.097 107.13 277.407 106.676 276.849C106.188 276.249 105.57 275.807 104.822 275.522C104.057 275.216 103.22 274.969 102.31 274.781C101.401 274.593 100.455 274.383 99.4748 274.149C98.4979 273.879 97.5513 273.497 96.635 273.005C95.7019 272.493 94.8649 271.782 94.1241 270.872C92.7267 269.155 91.9404 267.302 91.7651 265.313C91.5936 263.286 91.7423 261.188 92.211 259.018L100.969 258.181C100.424 259.794 100.135 261.318 100.102 262.755C100.068 264.193 100.464 265.418 101.289 266.431C101.845 267.113 102.522 267.628 103.32 267.975C104.139 268.306 104.981 268.601 105.845 268.86C106.714 269.081 107.538 269.355 108.32 269.682C109.122 269.992 109.793 270.477 110.332 271.139C111.662 272.773 112.221 274.621 112.01 276.685C111.802 278.711 111.06 280.862 109.785 283.138ZM121.645 271.625L103.545 252.37L116.871 240.799L118.47 242.953L112.556 249.057L116.977 256.135L123.534 250.694L125.962 253.359L118.522 258.539L123.316 266.139L131.069 258.176L133.547 261.472L121.645 271.625ZM154.87 246.072L139.089 243.858C138.978 244.017 138.848 244.175 138.7 244.33C138.572 244.468 138.452 244.617 138.341 244.777L143.868 253.275L141.018 256.111L122.986 237.574C123.459 236.845 124.128 235.956 124.994 234.908C125.863 233.822 126.849 232.71 127.951 231.571C129.054 230.433 130.205 229.376 131.404 228.4C132.562 227.457 133.782 226.653 135.063 225.988C136.365 225.306 137.669 224.881 138.975 224.711C140.257 225.525 141.276 226.397 142.034 227.328C143.162 228.713 143.75 230.281 143.798 232.029C143.847 233.778 143.51 235.582 142.789 237.442L156.056 243.094L154.87 246.072ZM136.942 242.614C137.871 240.757 138.283 238.961 138.177 237.225C138.07 235.489 137.587 234.094 136.729 233.039C136.19 232.378 135.511 231.882 134.692 231.551C133.894 231.204 133.004 231.103 132.022 231.249C131.753 231.468 131.499 231.726 131.26 232.024C131.025 232.284 130.805 232.584 130.599 232.923L136.942 242.614ZM171.348 231.47L167.868 233.53L156.874 208.179L164.76 202.533L185.208 219.413L182.795 222.151L176.462 218.744L168.766 226.144L171.348 231.47ZM174.441 217.656L161.669 210.775L161.421 210.977L167.38 223.301L174.441 217.656ZM209.424 200.471L190.243 190.658L190.057 190.81L201.632 206.041L198.656 208.722L183.573 187.217L190.827 180.795L205.981 193.01L197.463 175.135L205.348 169.489L222.694 188.894L220.281 191.632L202.41 178.741L202.162 178.943L211.837 197.733L209.424 200.471ZM229.76 183.606L211.66 164.351L224.986 152.779L226.585 154.933L220.671 161.037L225.092 168.115L231.649 162.674L234.077 165.339L226.637 170.52L231.431 178.119L239.184 170.156L241.661 173.452L229.76 183.606ZM248.541 168.315L230.441 149.06L237.445 142.584L250.187 162.797L257.345 155.37L259.822 158.667L248.541 168.315ZM275.95 146.362L268.62 138.816L262.504 144.672L267.644 152.505L264.794 155.341L246.257 136.183L252.951 129.96L260.839 142.056L267 137.143L257.413 127.204L264.107 120.981L278.799 143.526L275.95 146.362ZM293.385 132.58C291.751 133.91 290.206 134.842 288.749 135.375C287.308 135.928 286.001 136.202 284.826 136.195C283.899 135.437 283.049 134.668 282.276 133.887C281.487 133.086 280.763 132.282 280.107 131.475C278.608 129.635 277.397 127.767 276.473 125.872C275.549 123.976 274.875 122.135 274.451 120.348C274.032 118.523 273.826 116.834 273.833 115.28C273.841 113.727 274.017 112.38 274.361 111.24C276.434 110.618 278.682 110.508 281.105 110.907C283.549 111.291 285.968 112.192 288.363 113.613C290.761 114.996 292.962 116.918 294.965 119.379C296.245 120.95 297.126 122.434 297.608 123.829C298.074 125.204 297.988 126.597 297.35 128.011C296.734 129.407 295.412 130.93 293.385 132.58ZM289.136 131.036C290.005 130.329 290.823 129.56 291.59 128.728C292.358 127.897 292.98 127.098 293.457 126.332C292.91 125.196 292.373 124.24 291.845 123.466C291.339 122.675 290.749 121.866 290.075 121.039C288.745 119.405 287.39 118.015 286.01 116.869C284.63 115.723 283.236 114.812 281.826 114.137C281.492 116.472 281.464 118.782 281.742 121.066C282.003 123.33 282.531 125.478 283.328 127.512C284.144 129.529 285.184 131.313 286.447 132.864C286.887 132.644 287.33 132.386 287.777 132.091C288.228 131.758 288.681 131.406 289.136 131.036ZM320.753 111.021L304.972 108.807C304.861 108.967 304.731 109.124 304.583 109.279C304.455 109.418 304.335 109.567 304.224 109.726L309.751 118.225L306.901 121.06L288.869 102.523C289.342 101.794 290.011 100.906 290.877 99.8571C291.746 98.771 292.732 97.6589 293.835 96.5208C294.937 95.3827 296.088 94.3254 297.287 93.3489C298.445 92.4061 299.665 91.6022 300.946 90.9374C302.248 90.2557 303.552 89.8302 304.858 89.6607C306.14 90.4744 307.159 91.3465 307.917 92.2771C309.045 93.6627 309.633 95.2298 309.681 96.9786C309.73 98.7274 309.393 100.532 308.672 102.391L321.939 108.044L320.753 111.021ZM302.825 107.564C303.755 105.707 304.166 103.91 304.06 102.174C303.953 100.439 303.471 99.0434 302.612 97.9887C302.073 97.3269 301.394 96.8309 300.575 96.5006C299.777 96.1534 298.887 96.0527 297.905 96.1986C297.636 96.4174 297.382 96.6757 297.143 96.9735C296.908 97.2337 296.688 97.5334 296.482 97.8725L302.825 107.564ZM150.554 316.743L131.372 306.93L131.186 307.082L142.761 322.313L139.786 324.994L124.702 303.489L131.956 297.067L147.11 309.282L138.592 291.407L146.478 285.76L163.824 305.166L161.411 307.904L143.54 295.013L143.292 295.215L152.967 314.005L150.554 316.743ZM170.731 300.316L167.25 302.376L156.257 277.026L164.142 271.379L184.59 288.259L182.177 290.997L175.845 287.591L168.149 294.991L170.731 300.316ZM173.824 286.502L161.052 279.621L160.804 279.823L166.763 292.148L173.824 286.502ZM155.558 274.964L153.293 275.983C152.381 274.524 151.822 273.226 151.616 272.086C151.394 270.926 151.645 270.052 152.369 269.462C152.886 269.041 153.533 268.738 154.31 268.552C155.087 268.367 155.745 268.055 156.282 267.617C156.51 267.432 156.643 267.152 156.681 266.777C156.74 266.385 156.673 265.837 156.48 265.135L158.745 264.116C159.657 265.575 160.224 266.884 160.447 268.044C160.652 269.183 160.393 270.047 159.669 270.637C159.152 271.058 158.505 271.361 157.728 271.547C156.951 271.732 156.293 272.044 155.755 272.482C155.528 272.667 155.385 272.956 155.326 273.348C155.27 273.702 155.348 274.241 155.558 274.964ZM190.701 283.748L172.6 264.493L185.927 252.922L187.526 255.076L181.612 261.18L186.033 268.258L192.59 262.817L195.018 265.482L187.578 270.662L192.372 278.262L200.125 270.299L202.602 273.595L190.701 283.748ZM219.374 260.663L201.342 242.125C202.197 240.81 203.293 239.368 204.628 237.799C205.968 236.193 207.455 234.724 209.089 233.394C210.226 232.468 211.408 231.661 212.635 230.971C213.883 230.265 215.157 229.761 216.458 229.458C218.504 230.577 220.268 232.047 221.75 233.867C223.231 235.687 224.336 237.762 225.064 240.092C225.796 242.385 226.101 244.766 225.981 247.237C225.86 249.708 225.254 252.11 224.162 254.443C223.091 256.76 221.495 258.833 219.374 260.663ZM220.634 255.304C221.519 253.689 221.93 251.997 221.865 250.227C221.8 248.458 221.408 246.731 220.69 245.046C219.971 243.361 219.057 241.836 217.945 240.472C216.75 239.003 215.455 237.857 214.061 237.031C212.651 236.185 211.319 235.86 210.067 236.053C209.861 236.222 209.65 236.428 209.435 236.671C209.242 236.898 209.056 237.135 208.879 237.382L220.634 255.304ZM244.42 240.787C242.787 242.117 241.241 243.049 239.784 243.582C238.343 244.136 237.036 244.409 235.861 244.403C234.935 243.644 234.085 242.875 233.312 242.094C232.522 241.293 231.799 240.489 231.142 239.683C229.644 237.842 228.432 235.974 227.508 234.079C226.584 232.183 225.91 230.342 225.487 228.555C225.067 226.73 224.861 225.041 224.869 223.488C224.876 221.934 225.052 220.587 225.396 219.447C227.469 218.826 229.717 218.715 232.14 219.115C234.584 219.498 237.003 220.4 239.398 221.82C241.796 223.203 243.997 225.125 246 227.586C247.28 229.158 248.161 230.641 248.644 232.036C249.109 233.411 249.023 234.805 248.386 236.218C247.769 237.614 246.447 239.137 244.42 240.787ZM240.172 239.243C241.04 238.536 241.858 237.767 242.626 236.936C243.393 236.104 244.015 235.306 244.492 234.54C243.945 233.403 243.408 232.448 242.881 231.673C242.374 230.882 241.784 230.073 241.111 229.246C239.781 227.612 238.425 226.222 237.045 225.076C235.665 223.93 234.271 223.02 232.861 222.345C232.527 224.68 232.499 226.989 232.777 229.273C233.038 231.537 233.567 233.686 234.363 235.719C235.18 237.737 236.219 239.521 237.482 241.072C237.922 240.851 238.365 240.593 238.812 240.298C239.264 239.965 239.717 239.614 240.172 239.243ZM275.451 215.06L256.269 205.248L256.083 205.399L267.658 220.631L264.683 223.311L249.599 201.806L256.853 195.385L272.007 207.599L263.489 189.724L271.375 184.078L288.721 203.483L286.308 206.221L268.437 193.33L268.189 193.532L277.864 212.322L275.451 215.06ZM302.431 193.559C301.315 194.468 300.085 195.091 298.743 195.427C297.421 195.747 296.01 195.64 294.511 195.107C293.011 194.574 291.442 193.513 289.804 191.924L277.128 179.394L284.132 172.919C286.325 176.119 288.113 178.738 289.496 180.775C290.88 182.813 291.976 184.413 292.786 185.576C293.579 186.719 294.156 187.555 294.519 188.085C294.865 188.595 295.087 188.93 295.184 189.092C295.302 189.236 295.377 189.329 295.411 189.371C296.455 190.653 297.496 191.319 298.533 191.368C299.591 191.401 300.637 190.996 301.671 190.154C302.25 189.683 302.726 189.106 303.099 188.424C303.493 187.725 303.624 186.914 303.491 185.991C303.379 185.05 302.87 184.003 301.965 182.849L290.526 168.228L293.502 165.548L304.441 180.885C305.486 182.338 306.133 183.702 306.381 184.979C306.612 186.235 306.56 187.395 306.223 188.46C305.87 189.504 305.347 190.446 304.655 191.285C303.979 192.144 303.238 192.902 302.431 193.559ZM328.983 171.478L305.396 163.034L305.148 163.236L318.399 179.321L315.423 182.002L299.719 161.002L306.847 154.425L324.877 165.485L325.125 165.283L313.086 149.861L316.062 147.181L331.396 168.74L328.983 171.478ZM339.454 162.901L321.422 144.364C322.277 143.049 323.373 141.607 324.709 140.038C326.049 138.431 327.536 136.963 329.169 135.633C330.307 134.707 331.489 133.899 332.716 133.21C333.963 132.504 335.237 131.999 336.538 131.697C338.585 132.816 340.348 134.286 341.83 136.106C343.312 137.925 344.416 140 345.144 142.331C345.876 144.623 346.182 147.005 346.061 149.476C345.941 151.947 345.335 154.349 344.243 156.682C343.171 158.998 341.575 161.072 339.454 162.901ZM340.714 157.543C341.6 155.928 342.01 154.235 341.945 152.466C341.88 150.697 341.488 148.969 340.77 147.285C340.052 145.6 339.137 144.075 338.026 142.71C336.83 141.242 335.536 140.095 334.142 139.27C332.731 138.424 331.4 138.098 330.148 138.292C329.941 138.461 329.73 138.666 329.516 138.91C329.322 139.136 329.137 139.373 328.96 139.62L340.714 157.543ZM364.501 143.026C362.867 144.356 361.322 145.288 359.864 145.821C358.424 146.374 357.116 146.648 355.942 146.641C355.015 145.883 354.165 145.114 353.392 144.333C352.602 143.532 351.879 142.728 351.222 141.921C349.724 140.081 348.513 138.213 347.589 136.318C346.664 134.422 345.991 132.581 345.567 130.794C345.148 128.969 344.942 127.28 344.949 125.726C344.957 124.173 345.132 122.826 345.477 121.686C347.55 121.064 349.798 120.954 352.221 121.353C354.665 121.736 357.084 122.638 359.478 124.059C361.876 125.442 364.077 127.364 366.081 129.825C367.36 131.396 368.241 132.88 368.724 134.275C369.19 135.65 369.104 137.043 368.466 138.457C367.849 139.853 366.527 141.376 364.501 143.026ZM360.252 141.482C361.121 140.775 361.939 140.006 362.706 139.174C363.474 138.343 364.096 137.544 364.572 136.778C364.025 135.642 363.488 134.686 362.961 133.912C362.454 133.121 361.864 132.312 361.191 131.485C359.861 129.851 358.506 128.461 357.126 127.315C355.746 126.169 354.351 125.258 352.942 124.583C352.608 126.918 352.58 129.228 352.858 131.512C353.118 133.776 353.647 135.924 354.443 137.958C355.26 139.975 356.3 141.759 357.563 143.31C358.002 143.09 358.446 142.832 358.893 142.537C359.344 142.204 359.797 141.852 360.252 141.482Z" fill="white"/>
<path d="M534.475 52.0782C532.862 50.7229 531.657 49.3796 530.86 48.0481C530.046 46.7371 529.532 45.5041 529.318 44.3491C529.889 43.2965 530.486 42.3173 531.108 41.4116C531.746 40.4856 532.4 39.6244 533.07 38.8282C534.596 37.0112 536.204 35.4712 537.893 34.208C539.581 32.9448 541.263 31.9376 542.939 31.1866C544.653 30.4322 546.274 29.9131 547.801 29.6291C549.328 29.3452 550.684 29.2654 551.869 29.3898C552.868 31.3094 553.398 33.4967 553.46 35.9519C553.542 38.4242 553.11 40.9695 552.163 43.5879C551.255 46.2029 549.78 48.7252 547.738 51.1546C546.434 52.7062 545.142 53.8498 543.862 54.5855C542.599 55.3007 541.214 55.4777 539.707 55.1164C538.219 54.7722 536.475 53.7595 534.475 52.0782ZM535.195 47.6152C536.052 48.3358 536.961 48.9951 537.921 49.5931C538.882 50.1912 539.783 50.6524 540.625 50.9768C541.639 50.2264 542.476 49.5197 543.138 48.8566C543.82 48.2107 544.504 47.4794 545.191 46.6628C546.546 45.05 547.657 43.4584 548.524 41.8879C549.391 40.3175 550.024 38.7768 550.423 37.2659C548.066 37.3757 545.792 37.7812 543.601 38.4823C541.426 39.1631 539.415 40.0852 537.567 41.2487C535.738 42.4294 534.181 43.7853 532.894 45.3165C533.193 45.7069 533.53 46.0941 533.904 46.4781C534.315 46.8588 534.746 47.2378 535.195 47.6152ZM553.344 68.0395C552.63 67.439 551.808 66.6964 550.88 65.8117C549.951 64.927 549.1 64.0545 548.325 63.1943L563.152 42.0062C563.956 42.3338 564.924 42.7988 566.055 43.4009C567.206 44.0202 568.393 44.7217 569.616 45.5052C570.856 46.2682 571.976 47.0701 572.976 47.9107C574.058 48.82 575.035 49.833 575.908 50.9496C576.802 52.0834 577.454 53.276 577.865 54.5274C577.586 55.233 577.273 55.8753 576.925 56.4543C576.595 57.0129 576.241 57.5168 575.864 57.9659C574.903 59.1092 573.799 59.9053 572.551 60.3543C571.34 60.8 570.051 60.9876 568.682 60.9171C569.097 62.8684 569.141 64.6816 568.813 66.3567C568.506 68.0489 567.957 69.3646 567.168 70.3037C566.345 71.2837 565.275 71.9348 563.959 72.2572C562.681 72.5763 561.154 72.4249 559.377 71.803C557.601 71.1811 555.59 69.9266 553.344 68.0395ZM561.157 56.3177C563.066 56.947 564.821 57.0976 566.42 56.7696C568.019 56.4416 569.213 55.808 570.002 54.8689C570.517 54.2564 570.923 53.483 571.221 52.5487C571.539 51.6316 571.586 50.7662 571.364 49.9527C571.099 49.7297 570.759 49.5132 570.343 49.3032C569.965 49.0899 569.549 48.88 569.096 48.6732L561.157 56.3177ZM556.09 66.6372C556.253 66.7745 556.488 66.9718 556.794 67.2291C557.118 67.466 557.441 67.7029 557.765 67.9399C558.105 68.1564 558.354 68.2957 558.511 68.3578C559.167 68.0737 559.934 67.6381 560.81 67.051C561.724 66.4607 562.559 65.7164 563.314 64.8181C563.846 64.1852 564.287 63.4939 564.639 62.7442C565.01 62.0116 565.253 61.2051 565.365 60.3247C564.397 60.0681 563.412 59.7277 562.409 59.3036C561.445 58.8763 560.477 58.4113 559.506 57.9088L553.506 63.6817C553.896 64.2535 554.302 64.7861 554.723 65.2795C555.165 65.7901 555.62 66.2426 556.09 66.6372ZM582.285 92.9864L581.5 77.0706C581.323 76.9913 581.144 76.8933 580.964 76.7764C580.804 76.6768 580.635 76.5873 580.458 76.508L573.146 83.5303L569.827 81.2631L584.654 60.075C585.458 60.4027 586.456 60.8933 587.649 61.5469C588.879 62.1973 590.156 62.9571 591.48 63.8264C592.805 64.6957 594.059 65.6279 595.244 66.6229C596.387 67.5836 597.405 68.6309 598.298 69.7647C599.212 70.9157 599.875 72.1169 600.286 73.3682C599.727 74.7794 599.062 75.9444 598.29 76.8631C597.14 78.2309 595.711 79.1025 594.002 79.4779C592.294 79.8533 590.458 79.8611 588.497 79.5014L585.432 93.5934L582.285 92.9864ZM582.319 74.7283C584.318 75.2931 586.16 75.3604 587.845 74.9303C589.53 74.5002 590.81 73.7645 591.685 72.7233C592.234 72.07 592.594 71.3101 592.764 70.4436C592.956 69.5942 592.888 68.7011 592.56 67.7642C592.295 67.5412 591.994 67.3402 591.656 67.1613C591.357 66.9791 591.021 66.8189 590.649 66.6808L582.319 74.7283ZM591.329 99.332L606.67 77.5313L614.345 83.1966L594.955 101.856L591.329 99.332ZM610.726 117.513L611.607 116.216C611.004 115.814 610.427 115.381 609.876 114.918C608.263 113.563 606.948 112.144 605.93 110.661C604.928 109.158 604.321 107.829 604.107 106.674C605.133 104.749 606.383 102.909 607.859 101.153C609.42 99.2954 611.187 97.6279 613.159 96.1508C615.149 94.6533 617.273 93.4943 619.529 92.6739C621.824 91.8502 624.2 91.5305 626.657 91.7148L629.428 100.417C626.538 100.044 623.695 100.11 620.9 100.618C618.143 101.122 615.597 101.996 613.263 103.239C610.95 104.5 609.004 106.069 607.426 107.948C608.36 109.116 609.368 110.155 610.45 111.064C611.553 111.99 612.629 112.72 613.678 113.254L618.701 106.033L624.828 110.554L613.933 119.79L610.726 117.513ZM621.37 124.629L618.694 121.596L641.533 106.044L648.558 112.731L635.812 135.981L632.67 134.124L634.829 127.265L626.117 121.094L621.37 124.629ZM635.519 125.076L639.883 111.241L639.638 111.035L628.649 119.199L635.519 125.076ZM641.719 141.677L656.546 120.489C657.998 121.082 659.62 121.888 661.412 122.906C663.241 123.92 664.962 125.105 666.575 126.461C667.698 127.404 668.713 128.414 669.62 129.49C670.548 130.583 671.282 131.74 671.824 132.961C671.108 135.181 669.995 137.189 668.485 138.986C666.976 140.782 665.145 142.256 662.992 143.408C660.877 144.557 658.595 145.304 656.146 145.649C653.696 145.994 651.223 145.849 648.726 145.214C646.25 144.596 643.915 143.417 641.719 141.677ZM647.219 141.909C648.972 142.477 650.711 142.562 652.437 142.167C654.163 141.771 655.786 141.062 657.306 140.041C658.826 139.019 660.152 137.835 661.284 136.487C662.503 135.038 663.386 133.551 663.935 132.027C664.502 130.483 664.572 129.114 664.147 127.921C663.943 127.749 663.701 127.581 663.422 127.416C663.163 127.268 662.895 127.13 662.619 127.003L647.219 141.909ZM665.939 162.552C664.326 161.197 663.121 159.853 662.325 158.522C661.51 157.211 660.997 155.978 660.783 154.823C661.354 153.77 661.95 152.791 662.572 151.885C663.211 150.959 663.865 150.098 664.534 149.302C666.061 147.485 667.669 145.945 669.357 144.682C671.045 143.418 672.728 142.411 674.404 141.66C676.118 140.906 677.738 140.387 679.266 140.103C680.793 139.819 682.149 139.739 683.333 139.863C684.332 141.783 684.863 143.97 684.924 146.426C685.006 148.898 684.574 151.443 683.628 154.061C682.719 156.677 681.244 159.199 679.203 161.628C677.899 163.18 676.607 164.323 675.327 165.059C674.064 165.774 672.679 165.951 671.171 165.59C669.684 165.246 667.94 164.233 665.939 162.552ZM666.659 158.089C667.517 158.809 668.425 159.469 669.386 160.067C670.346 160.665 671.247 161.126 672.089 161.45C673.103 160.7 673.941 159.993 674.603 159.33C675.285 158.684 675.969 157.953 676.655 157.136C678.01 155.524 679.122 153.932 679.988 152.362C680.855 150.791 681.488 149.25 681.887 147.74C679.531 147.849 677.257 148.255 675.065 148.956C672.891 149.637 670.88 150.559 669.031 151.722C667.203 152.903 665.645 154.259 664.359 155.79C664.658 156.181 664.994 156.568 665.368 156.952C665.78 157.332 666.21 157.711 666.659 158.089ZM688.97 181.383L703.797 160.195C704.601 160.523 705.569 160.987 706.7 161.59C707.869 162.189 709.095 162.905 710.379 163.74C711.663 164.575 712.897 165.49 714.081 166.485C715.224 167.446 716.242 168.493 717.136 169.627C718.049 170.778 718.712 171.979 719.123 173.231C718.564 174.642 717.865 175.848 717.024 176.848C715.634 178.502 713.936 179.548 711.93 179.987C709.962 180.423 707.84 180.399 705.565 179.915C703.306 179.41 701.048 178.575 698.789 177.408L692.29 183.65L688.97 181.383ZM700.753 175.506C702.776 175.917 704.644 175.85 706.357 175.304C708.087 174.737 709.424 173.892 710.367 172.77C710.968 172.055 711.362 171.254 711.55 170.367C711.776 169.477 711.725 168.564 711.397 167.627C711.193 167.455 710.952 167.287 710.672 167.122C710.413 166.974 710.146 166.836 709.87 166.709L700.753 175.506ZM712.412 201.605C710.799 200.249 709.595 198.906 708.798 197.575C707.984 196.263 707.47 195.03 707.256 193.876C707.827 192.823 708.423 191.844 709.045 190.938C709.684 190.012 710.338 189.151 711.007 188.355C712.534 186.538 714.142 184.998 715.83 183.734C717.519 182.471 719.201 181.464 720.877 180.713C722.591 179.959 724.211 179.439 725.739 179.156C727.266 178.872 728.622 178.792 729.806 178.916C730.805 180.836 731.336 183.023 731.397 185.478C731.479 187.951 731.047 190.496 730.101 193.114C729.192 195.729 727.717 198.252 725.676 200.681C724.372 202.233 723.08 203.376 721.8 204.112C720.537 204.827 719.152 205.004 717.644 204.643C716.157 204.299 714.413 203.286 712.412 201.605ZM713.132 197.142C713.99 197.862 714.899 198.521 715.859 199.12C716.819 199.718 717.721 200.179 718.563 200.503C719.576 199.753 720.414 199.046 721.076 198.383C721.758 197.737 722.442 197.006 723.128 196.189C724.484 194.576 725.595 192.985 726.462 191.414C727.328 189.844 727.961 188.303 728.36 186.792C726.004 186.902 723.73 187.308 721.538 188.009C719.364 188.689 717.353 189.612 715.504 190.775C713.676 191.956 712.119 193.312 710.832 194.843C711.131 195.233 711.467 195.621 711.841 196.004C712.253 196.385 712.683 196.764 713.132 197.142ZM738.721 224.444L737.936 208.528C737.759 208.449 737.58 208.351 737.399 208.234C737.239 208.134 737.071 208.045 736.894 207.966L729.582 214.988L726.262 212.721L741.089 191.533C741.894 191.86 742.892 192.351 744.084 193.005C745.314 193.655 746.591 194.415 747.916 195.284C749.241 196.153 750.495 197.085 751.679 198.08C752.822 199.041 753.841 200.088 754.734 201.222C755.648 202.373 756.31 203.574 756.722 204.826C756.163 206.237 755.497 207.402 754.725 208.321C753.576 209.689 752.147 210.56 750.438 210.936C748.729 211.311 746.894 211.319 744.932 210.959L741.868 225.051L738.721 224.444ZM738.755 206.186C740.753 206.751 742.595 206.818 744.28 206.388C745.965 205.958 747.245 205.222 748.12 204.181C748.669 203.528 749.029 202.768 749.2 201.901C749.391 201.052 749.323 200.159 748.996 199.222C748.73 198.999 748.429 198.798 748.092 198.619C747.792 198.437 747.456 198.277 747.085 198.138L738.755 206.186ZM497.909 90.0575L511.201 71.1318L506.553 67.9578L509.02 64.6492L525.029 77.3704L523.213 79.345L518.565 76.171L501.535 92.5819L497.909 90.0575ZM516.945 106.576C515.332 105.221 514.128 103.878 513.331 102.546C512.517 101.235 512.003 100.002 511.789 98.8472C512.36 97.7945 512.956 96.8153 513.578 95.9097C514.217 94.9836 514.871 94.1225 515.54 93.3263C517.067 91.5093 518.675 89.9692 520.363 88.706C522.052 87.4428 523.734 86.4357 525.41 85.6846C527.124 84.9302 528.744 84.4111 530.272 84.1272C531.799 83.8432 533.155 83.7635 534.339 83.8878C535.338 85.8074 535.869 87.9948 535.93 90.4499C536.013 92.9223 535.58 95.4676 534.634 98.0859C533.725 100.701 532.25 103.223 530.209 105.653C528.905 107.204 527.613 108.348 526.333 109.083C525.07 109.799 523.685 109.976 522.177 109.614C520.69 109.27 518.946 108.258 516.945 106.576ZM517.665 102.113C518.523 102.834 519.432 103.493 520.392 104.091C521.352 104.689 522.254 105.15 523.096 105.475C524.109 104.724 524.947 104.018 525.609 103.355C526.291 102.709 526.975 101.977 527.661 101.161C529.017 99.548 530.128 97.9564 530.995 96.3859C531.861 94.8155 532.494 93.2748 532.893 91.7639C530.537 91.8737 528.263 92.2792 526.071 92.9804C523.897 93.6611 521.886 94.5832 520.037 95.7468C518.209 96.9274 516.652 98.2833 515.365 99.8145C515.664 100.205 516 100.592 516.374 100.976C516.786 101.357 517.216 101.736 517.665 102.113ZM530.795 117.692L545.622 96.5042C547.074 97.0974 548.696 97.9031 550.488 98.9211C552.317 99.9359 554.038 101.121 555.651 102.476C556.774 103.42 557.789 104.429 558.696 105.505C559.624 106.598 560.358 107.755 560.9 108.977C560.184 111.196 559.071 113.204 557.561 115.001C556.051 116.798 554.22 118.272 552.068 119.424C549.953 120.573 547.671 121.32 545.222 121.665C542.772 122.01 540.299 121.865 537.802 121.229C535.326 120.611 532.99 119.432 530.795 117.692ZM536.295 117.925C538.047 118.492 539.787 118.578 541.513 118.182C543.238 117.786 544.861 117.078 546.382 116.056C547.902 115.035 549.228 113.85 550.36 112.503C551.578 111.053 552.462 109.567 553.011 108.043C553.577 106.498 553.648 105.129 553.223 103.936C553.018 103.765 552.777 103.596 552.497 103.431C552.239 103.283 551.971 103.146 551.695 103.018L536.295 117.925ZM555.015 138.567C553.402 137.212 552.197 135.869 551.4 134.537C550.586 133.226 550.072 131.993 549.859 130.838C550.43 129.786 551.026 128.806 551.648 127.901C552.287 126.975 552.941 126.114 553.61 125.317C555.137 123.5 556.744 121.96 558.433 120.697C560.121 119.434 561.804 118.427 563.48 117.676C565.193 116.921 566.814 116.402 568.341 116.118C569.869 115.834 571.224 115.755 572.409 115.879C573.408 117.799 573.939 119.986 574 122.441C574.082 124.913 573.65 127.459 572.704 130.077C571.795 132.692 570.32 135.214 568.278 137.644C566.974 139.195 565.683 140.339 564.403 141.075C563.14 141.79 561.754 141.967 560.247 141.606C558.76 141.261 557.016 140.249 555.015 138.567ZM555.735 134.104C556.592 134.825 557.501 135.484 558.462 136.082C559.422 136.68 560.323 137.142 561.165 137.466C562.179 136.716 563.017 136.009 563.678 135.346C564.361 134.7 565.045 133.969 565.731 133.152C567.086 131.539 568.197 129.948 569.064 128.377C569.931 126.807 570.564 125.266 570.963 123.755C568.606 123.865 566.333 124.27 564.141 124.971C561.967 125.652 559.955 126.574 558.107 127.738C556.279 128.919 554.721 130.274 553.435 131.806C553.733 132.196 554.07 132.583 554.444 132.967C554.855 133.348 555.286 133.727 555.735 134.104ZM582.229 161.436C580.616 160.081 579.411 158.737 578.614 157.406C577.8 156.095 577.286 154.862 577.073 153.707C577.644 152.654 578.24 151.675 578.862 150.77C579.501 149.843 580.155 148.982 580.824 148.186C582.351 146.369 583.958 144.829 585.647 143.566C587.335 142.303 589.018 141.296 590.694 140.544C592.407 139.79 594.028 139.271 595.555 138.987C597.083 138.703 598.438 138.623 599.623 138.748C600.622 140.667 601.153 142.855 601.214 145.31C601.296 147.782 600.864 150.327 599.918 152.946C599.009 155.561 597.534 158.083 595.492 160.513C594.188 162.064 592.897 163.208 591.617 163.943C590.354 164.659 588.968 164.836 587.461 164.474C585.974 164.13 584.23 163.117 582.229 161.436ZM582.949 156.973C583.806 157.694 584.715 158.353 585.676 158.951C586.636 159.549 587.537 160.01 588.379 160.335C589.393 159.584 590.231 158.878 590.892 158.215C591.574 157.569 592.259 156.837 592.945 156.021C594.3 154.408 595.411 152.816 596.278 151.246C597.145 149.675 597.778 148.135 598.177 146.624C595.82 146.734 593.547 147.139 591.355 147.84C589.181 148.521 587.169 149.443 585.321 150.607C583.493 151.787 581.935 153.143 580.649 154.674C580.947 155.065 581.284 155.452 581.658 155.836C582.069 156.217 582.5 156.596 582.949 156.973ZM604.469 179.655L601.792 176.622L624.632 161.07L631.656 167.756L618.911 191.007L615.768 189.15L617.927 182.291L609.215 176.12L604.469 179.655ZM618.617 180.102L622.982 166.266L622.737 166.06L611.748 174.225L618.617 180.102ZM624.818 196.703L639.645 175.514C640.449 175.842 641.417 176.307 642.548 176.909C643.717 177.508 644.943 178.225 646.227 179.06C647.511 179.895 648.745 180.81 649.929 181.805C651.072 182.766 652.09 183.813 652.984 184.947C653.897 186.098 654.56 187.299 654.971 188.55C654.412 189.962 653.713 191.167 652.872 192.168C651.482 193.821 649.784 194.868 647.778 195.307C645.81 195.743 643.688 195.718 641.413 195.234C639.154 194.73 636.896 193.895 634.637 192.728L628.138 198.97L624.818 196.703ZM636.601 190.826C638.624 191.237 640.492 191.169 642.205 190.623C643.935 190.057 645.272 189.212 646.215 188.089C646.816 187.375 647.21 186.574 647.398 185.687C647.624 184.797 647.573 183.883 647.245 182.946C647.041 182.775 646.8 182.606 646.52 182.441C646.261 182.294 645.994 182.156 645.718 182.028L636.601 190.826ZM648.26 216.924C646.647 215.569 645.442 214.226 644.646 212.894C643.832 211.583 643.318 210.35 643.104 209.195C643.675 208.142 644.271 207.163 644.893 206.258C645.532 205.332 646.186 204.47 646.855 203.674C648.382 201.857 649.99 200.317 651.678 199.054C653.367 197.791 655.049 196.784 656.725 196.033C658.439 195.278 660.059 194.759 661.587 194.475C663.114 194.191 664.47 194.111 665.654 194.236C666.653 196.155 667.184 198.343 667.245 200.798C667.327 203.27 666.895 205.816 665.949 208.434C665.04 211.049 663.565 213.571 661.524 216.001C660.22 217.552 658.928 218.696 657.648 219.431C656.385 220.147 655 220.324 653.492 219.962C652.005 219.618 650.261 218.606 648.26 216.924ZM648.98 212.461C649.838 213.182 650.747 213.841 651.707 214.439C652.667 215.037 653.569 215.498 654.411 215.823C655.424 215.072 656.262 214.366 656.924 213.703C657.606 213.057 658.29 212.325 658.976 211.509C660.331 209.896 661.443 208.304 662.309 206.734C663.176 205.163 663.809 203.623 664.208 202.112C661.852 202.222 659.578 202.627 657.386 203.328C655.212 204.009 653.201 204.931 651.352 206.095C649.524 207.275 647.967 208.631 646.68 210.162C646.979 210.553 647.315 210.94 647.689 211.324C648.101 211.705 648.531 212.084 648.98 212.461ZM662.11 228.04L677.452 206.24L685.126 211.905L665.736 230.565L662.11 228.04ZM679.481 243.16C677.869 241.805 676.664 240.462 675.867 239.13C675.053 237.819 674.539 236.586 674.325 235.431C674.896 234.379 675.493 233.4 676.114 232.494C676.753 231.568 677.407 230.707 678.076 229.91C679.603 228.093 681.211 226.553 682.899 225.29C684.588 224.027 686.27 223.02 687.946 222.269C689.66 221.514 691.28 220.995 692.808 220.711C694.335 220.427 695.691 220.348 696.875 220.472C697.875 222.392 698.405 224.579 698.467 227.034C698.549 229.506 698.117 232.052 697.17 234.67C696.262 237.285 694.786 239.807 692.745 242.237C691.441 243.788 690.149 244.932 688.869 245.668C687.606 246.383 686.221 246.56 684.713 246.199C683.226 245.854 681.482 244.842 679.481 243.16ZM680.201 238.697C681.059 239.418 681.968 240.077 682.928 240.675C683.889 241.273 684.79 241.735 685.632 242.059C686.646 241.309 687.483 240.602 688.145 239.939C688.827 239.293 689.511 238.562 690.197 237.745C691.553 236.132 692.664 234.541 693.531 232.97C694.398 231.4 695.031 229.859 695.429 228.348C693.073 228.458 690.799 228.863 688.608 229.565C686.433 230.245 684.422 231.167 682.573 232.331C680.745 233.512 679.188 234.868 677.901 236.399C678.2 236.789 678.536 237.176 678.91 237.56C679.322 237.941 679.752 238.32 680.201 238.697ZM704.659 271.685L706.542 265.901C704.988 264.559 703.813 263.242 703.02 261.948C702.226 260.654 701.733 259.438 701.539 258.3C702.11 257.247 702.707 256.268 703.328 255.363C703.967 254.437 704.621 253.575 705.29 252.779C706.817 250.962 708.425 249.422 710.113 248.159C711.802 246.896 713.484 245.889 715.16 245.138C716.874 244.383 718.494 243.864 720.022 243.58C721.549 243.296 722.905 243.216 724.089 243.341C725.089 245.26 725.619 247.448 725.681 249.903C725.763 252.375 725.331 254.921 724.384 257.539C723.476 260.154 722 262.676 719.959 265.106C718.483 266.861 717.029 268.095 715.595 268.806C714.179 269.497 712.566 269.447 710.756 268.658L710.506 275.919L704.659 271.685ZM707.415 261.566C708.273 262.287 709.182 262.946 710.142 263.544C711.103 264.142 712.004 264.603 712.846 264.928C713.86 264.177 714.697 263.471 715.359 262.808C716.041 262.162 716.725 261.43 717.411 260.614C718.767 259.001 719.878 257.409 720.745 255.839C721.612 254.268 722.245 252.728 722.643 251.217C720.287 251.327 718.013 251.732 715.822 252.433C713.647 253.114 711.636 254.036 709.787 255.2C707.959 256.38 706.402 257.736 705.115 259.267C705.414 259.658 705.75 260.045 706.124 260.429C706.536 260.81 706.966 261.189 707.415 261.566ZM726.015 282.264C724.912 281.337 724.07 280.246 723.488 278.991C722.926 277.753 722.766 276.347 723.008 274.774C723.25 273.201 723.999 271.461 725.253 269.554L735.183 254.753L742.857 260.418C740.124 263.172 737.887 265.42 736.146 267.161C734.404 268.902 733.038 270.279 732.047 271.293C731.073 272.286 730.36 273.01 729.907 273.466C729.472 273.901 729.184 274.181 729.043 274.307C728.923 274.45 728.846 274.542 728.812 274.583C727.748 275.848 727.289 276.996 727.435 278.024C727.602 279.069 728.195 280.021 729.216 280.879C729.788 281.359 730.444 281.719 731.184 281.957C731.944 282.213 732.765 282.189 733.647 281.885C734.55 281.599 735.483 280.903 736.447 279.797L748.663 265.82L751.854 268.24L738.841 281.861C737.609 283.16 736.39 284.051 735.183 284.534C733.993 284.997 732.843 285.163 731.734 285.032C730.642 284.881 729.619 284.544 728.665 284.021C727.694 283.519 726.811 282.933 726.015 282.264ZM741.537 294.524L757.057 273.134L770.922 284.054L769.106 286.028L762.001 281.364L755.878 287.034L762.452 292.454L760.289 295.339L753.806 289.003L747.24 295.137L756.516 301.259L753.743 304.31L741.537 294.524ZM463.812 130.633L477.104 111.708L472.456 108.534L474.923 105.225L490.932 117.946L489.116 119.921L484.468 116.747L467.438 133.158L463.812 130.633ZM478.334 142.575L493.854 121.185L507.719 132.105L505.903 134.079L498.798 129.415L492.675 135.085L499.249 140.505L497.086 143.39L490.603 137.054L484.037 143.188L493.313 149.31L490.54 152.362L478.334 142.575ZM505.265 165.52L511.307 144.838L511.123 144.684L498.332 158.91L495.141 156.49L513.436 137.641L521.104 143.562L511.948 160.738L527.909 149.019L534.934 155.706L519.126 176.383L515.983 174.526L525.295 154.555L525.05 154.349L508.407 167.376L505.265 165.52ZM545.971 199.726L549.843 174.975L549.598 174.769L536.282 190.801L533.091 188.38L550.774 169.017L558.571 174.785L551.089 194.569L551.334 194.775L564.224 180.058L567.415 182.478L549.114 201.583L545.971 199.726ZM560.543 212.441C558.93 211.086 557.725 209.742 556.928 208.411C556.114 207.1 555.6 205.867 555.386 204.712C555.957 203.659 556.554 202.68 557.176 201.774C557.814 200.848 558.468 199.987 559.138 199.191C560.664 197.374 562.272 195.834 563.961 194.571C565.649 193.308 567.331 192.3 569.007 191.549C570.721 190.795 572.342 190.276 573.869 189.992C575.396 189.708 576.752 189.628 577.936 189.753C578.936 191.672 579.466 193.86 579.528 196.315C579.61 198.787 579.178 201.332 578.231 203.951C577.323 206.566 575.848 209.088 573.806 211.517C572.502 213.069 571.21 214.213 569.93 214.948C568.667 215.663 567.282 215.84 565.775 215.479C564.287 215.135 562.543 214.122 560.543 212.441ZM561.263 207.978C562.12 208.699 563.029 209.358 563.989 209.956C564.95 210.554 565.851 211.015 566.693 211.34C567.707 210.589 568.544 209.882 569.206 209.219C569.888 208.573 570.572 207.842 571.259 207.026C572.614 205.413 573.725 203.821 574.592 202.251C575.459 200.68 576.092 199.14 576.491 197.629C574.134 197.738 571.86 198.144 569.669 198.845C567.494 199.526 565.483 200.448 563.634 201.612C561.806 202.792 560.249 204.148 558.962 205.679C559.261 206.07 559.598 206.457 559.972 206.841C560.383 207.222 560.813 207.601 561.263 207.978ZM573.717 224.609L573.92 221.384C575.459 221.667 576.626 221.707 577.423 221.506C578.219 221.304 578.849 220.928 579.312 220.376C579.81 219.784 580.128 219.094 580.268 218.306C580.425 217.498 580.511 216.629 580.525 215.7C580.539 214.772 580.568 213.804 580.613 212.797C580.696 211.786 580.893 210.785 581.205 209.793C581.533 208.78 582.075 207.825 582.83 206.926C584.254 205.232 585.926 204.112 587.847 203.567C589.806 203.018 591.895 202.771 594.114 202.824L596.578 211.27C594.893 211.037 593.341 211.04 591.923 211.276C590.505 211.513 589.376 212.131 588.535 213.132C587.969 213.805 587.59 214.567 587.399 215.416C587.228 216.283 587.096 217.165 587.004 218.062C586.949 218.957 586.834 219.818 586.66 220.647C586.507 221.493 586.155 222.243 585.606 222.897C584.251 224.509 582.54 225.405 580.474 225.585C578.445 225.761 576.193 225.436 573.717 224.609ZM596.762 242.355L611.589 221.167C613.041 221.76 614.663 222.565 616.455 223.583C618.284 224.598 620.005 225.783 621.618 227.139C622.741 228.082 623.756 229.092 624.663 230.168C625.59 231.261 626.325 232.418 626.866 233.639C626.15 235.859 625.037 237.867 623.528 239.663C622.018 241.46 620.187 242.934 618.035 244.086C615.92 245.235 613.638 245.982 611.188 246.327C608.739 246.672 606.266 246.527 603.769 245.892C601.293 245.274 598.957 244.095 596.762 242.355ZM602.261 242.587C604.014 243.155 605.753 243.24 607.479 242.844C609.205 242.449 610.828 241.74 612.348 240.719C613.868 239.697 615.195 238.513 616.327 237.165C617.545 235.716 618.429 234.229 618.978 232.705C619.544 231.161 619.615 229.792 619.189 228.598C618.985 228.427 618.743 228.259 618.464 228.094C618.205 227.946 617.938 227.808 617.662 227.681L602.261 242.587ZM616.007 258.579L613.331 255.547L636.17 239.994L643.195 246.681L630.449 269.932L627.307 268.075L629.466 261.216L620.754 255.045L616.007 258.579ZM630.156 259.027L634.52 245.191L634.275 244.985L623.287 253.15L630.156 259.027ZM636.357 275.627L651.184 254.439C652.636 255.033 654.258 255.838 656.049 256.856C657.879 257.871 659.6 259.056 661.213 260.411C662.335 261.355 663.35 262.365 664.258 263.44C665.185 264.533 665.92 265.69 666.461 266.912C665.745 269.131 664.632 271.14 663.123 272.936C661.613 274.733 659.782 276.207 657.63 277.359C655.515 278.508 653.233 279.255 650.783 279.6C648.334 279.945 645.86 279.8 643.364 279.165C640.887 278.547 638.552 277.368 636.357 275.627ZM641.856 275.86C643.609 276.427 645.348 276.513 647.074 276.117C648.8 275.721 650.423 275.013 651.943 273.991C653.463 272.97 654.79 271.785 655.922 270.438C657.14 268.988 658.023 267.502 658.573 265.978C659.139 264.433 659.209 263.065 658.784 261.871C658.58 261.7 658.338 261.531 658.059 261.366C657.8 261.218 657.533 261.081 657.257 260.953L641.856 275.86ZM660.576 296.503C658.964 295.147 657.759 293.804 656.962 292.472C656.148 291.161 655.634 289.928 655.42 288.773C655.991 287.721 656.588 286.742 657.209 285.836C657.848 284.91 658.502 284.049 659.171 283.253C660.698 281.436 662.306 279.895 663.994 278.632C665.683 277.369 667.365 276.362 669.041 275.611C670.755 274.856 672.375 274.337 673.903 274.053C675.43 273.769 676.786 273.69 677.97 273.814C678.97 275.734 679.5 277.921 679.562 280.376C679.644 282.849 679.212 285.394 678.265 288.012C677.356 290.627 675.881 293.149 673.84 295.579C672.536 297.13 671.244 298.274 669.964 299.01C668.701 299.725 667.316 299.902 665.808 299.541C664.321 299.196 662.577 298.184 660.576 296.503ZM661.296 292.04C662.154 292.76 663.063 293.419 664.023 294.017C664.984 294.615 665.885 295.077 666.727 295.401C667.741 294.651 668.578 293.944 669.24 293.281C669.922 292.635 670.606 291.904 671.292 291.087C672.648 289.474 673.759 287.883 674.626 286.312C675.493 284.742 676.125 283.201 676.524 281.69C674.168 281.8 671.894 282.205 669.703 282.907C667.528 283.587 665.517 284.509 663.668 285.673C661.84 286.854 660.283 288.21 658.996 289.741C659.295 290.131 659.631 290.518 660.005 290.902C660.417 291.283 660.847 291.662 661.296 292.04Z" fill="white"/>
</svg>
